# AST/ASF file generated using VICON BodyLanguage
# -----------------------------------------------
:version 1.10
:name VICON
:units
  mass 1.0
  length 0.45
  angle deg
:documentation
   .ast/.asf automatically generated from VICON data using
   VICON BodyBuilder and BodyLanguage model FoxedUp or BRILLIANT.MOD
:root
   order TX TY TZ RX RY RZ
   axis XYZ
   position 0 0 0  
   orientation 0 0 0 
:bonedata
  begin
     id 1 
     name lhipjoint
     direction 0.714689 -0.624256 0.315473 
     length 2.45343 
     axis 0 0 0  XYZ
  end
  begin
     id 2 
     name lfemur
     direction 0.34202 -0.939693 0  
     length 6.59069  
     axis 0 0 20  XYZ
    dof rx ry rz
    limits (-160.0 20.0)
           (-70.0 70.0)
           (-60.0 70.0)
  end
  begin
     id 3 
     name ltibia
     direction 0.34202 -0.939693 0   
     length 6.73476   
     axis 0 0 20   XYZ
    dof rx
    limits (-10.0 170.0)
  end
  begin
     id 4 
     name lfoot
     direction 0.0718085 -0.197292 0.977711   
     length 1.52607   
     axis -90 7.62852e-016 20   XYZ
    dof rx rz
    limits (-45.0 90.0)
           (-70.0 20.0)
  end
  begin
     id 5 
     name ltoes
     direction 1.53553e-011 -4.22024e-011 1   
     length 0.777832   
     axis -90 7.62852e-016 20   XYZ
    dof rx
    limits (-90.0 20.0)
  end
  begin
     id 6 
     name rhipjoint
     direction -0.727419 -0.612432 0.309497   
     length 2.50079  
     axis 0 0 0  XYZ 
  end
  begin
     id 7 
     name rfemur
     direction -0.34202 -0.939693 0   
     length 6.51665   
     axis 0 0 -20   XYZ
    dof rx ry rz
    limits (-160.0 20.0)
           (-70.0 70.0)
           (-70.0 60.0)
  end
  begin
     id 8 
     name rtibia
     direction -0.34202 -0.939693 0   
     length 6.48919   
     axis 0 0 -20   XYZ
    dof rx
    limits (-10.0 170.0)
 end
 begin
     id 9 
     name rfoot
     direction -0.112205 -0.308282 0.944655   
     length 1.68717  
     axis -90 -7.62852e-016 -20   XYZ
    dof rx rz
    limits (-45.0 90.0)
           (-20.0 70.0)
  end
  begin
     id 10 
     name rtoes
     direction -1.53583e-011 -4.21993e-011 1   
     length 0.846859   
     axis -90 -7.62852e-016 -20   XYZ
    dof rx
    limits (-90.0 20.0)
  end
  begin
     id 11 
     name lowerback
     direction -0.00119603 0.996364 -0.0851956   
     length 1.67242   
     axis 0 0 0   XYZ
    dof rx ry rz
    limits (-20.0 45.0)
           (-30.0 30.0)
           (-30.0 30.0)
  end
  begin
     id 12 
     name upperback
     direction -0.00531001 0.998318 0.0577248   
     length 1.64819   
     axis 0 0 0   XYZ
    dof rx ry rz
    limits (-20.0 45.0)
           (-30.0 30.0)
           (-30.0 30.0)
  end
  begin
     id 13 
     name thorax
     direction -0.00653676 0.995132 0.0983291   
     length 1.67429   
     axis 0 0 0   XYZ
    dof rx ry rz
    limits (-20.0 45.0)
           (-30.0 30.0)
           (-30.0 30.0)
  end
  begin
     id 14 
     name lowerneck
     direction 0.0141424 0.999886 0.00525412   
     length 1.59623   
     axis 0 0 0   XYZ
    dof rx ry rz
    limits (-20.0 45.0)
           (-30.0 30.0)
           (-30.0 30.0)
  end
  begin
     id 15 
     name upperneck
     direction -0.0640064 0.987178 -0.146232   
     length 1.59576   
     axis 0 0 0   XYZ
    dof rx ry rz
    limits (-20.0 45.0)
           (-30.0 30.0)
           (-30.0 30.0)
  end
  begin
     id 16
     name head
     direction -0.0222942 0.998496 -0.0500859  
     length 1.60959  
     axis 0 0 0   XYZ
    dof rx ry rz
    limits (-20.0 45.0)
           (-30.0 30.0)
           (-30.0 30.0)
  end
  begin
     id 17 
     name lclavicle
     direction 0.908549 0.392612 0.142806  
     length 2.80649  
     axis 0 0 0   XYZ
    dof ry rz
    limits (-20.0 10.0)
           (0.0 20.0)
  end
  begin
     id 18 
     name lhumerus
     direction 1 -4.48968e-011 1.08832e-028   
     length 4.2884   
     axis -180 -30 -90   XYZ
    dof rx ry rz
    limits (-60.0 90.0)
           (-90.0 90.0)
           (-90.0 90.0)
  end
  begin
     id 19
     name lradius
     direction 1 -4.48952e-011 -3.02642e-028   
     length 3.06552   
     axis -180 -30 -90   XYZ
    dof rx
    limits (-10.0 170.0)
  end
  begin
     id 20
     name lwrist
     direction 1 -4.49014e-011 1.58672e-027   
     length 1.53276   
     axis -1.65735e-015 90 90   XYZ
    dof ry
    limits (-180.0 0.0)
 end
  begin
     id 21 
     name lhand
     direction 1 -4.48928e-011 3.17344e-027   
     length 0.753045   
     axis -2.02492e-015 90 90   XYZ
    dof rx rz
    limits (-90.0 90.0)
           (-45.0 45.0)
  end
  begin
     id 22 
     name lfingers
     direction 1 -4.48958e-011 6.34687e-027   
     length 0.607124   
     axis -4.04985e-015 90 90   XYZ
    dof rx
    limits (0.0 90.0)
  end
  begin
     id 23
     name lthumb
     direction 0.707107 -6.34905e-011 0.707107   
     length 0.871712   
     axis -90 45 2.85299e-015   XYZ
    dof rx rz
    limits (-45.0 45.0)
           (-45.0 45.0)
  end
  begin
     id 24 
     name rclavicle
     direction -0.885098 0.45949 0.0739604   
     length 2.9478  
     axis 0 0 0   XYZ 
    dof ry rz
    limits (-10.0 20.0)
           (-20.0 0.0)
  end
  begin
     id 25 
     name rhumerus
     direction -1 -4.4898e-011 -2.61739e-027  
     length 4.52172   
     axis -180 30 90   XYZ
    dof rx ry rz
    limits (-90.0 60.0)
           (-90.0 90.0)
           (-90.0 90.0)
  end
  begin
     id 26 
     name rradius
     direction -1 -4.48945e-011 9.02552e-028   
     length 2.8914   
     axis -180 30 90   XYZ
    dof rx
    limits (-10.0 170.0)
  end
  begin
     id 27 
     name rwrist
     direction -1 -4.49018e-011 1.58672e-027   
     length 1.4457   
     axis -1.65735e-015 -90 -90   XYZ
    dof ry
    limits (-180.0 0.0)
  end
  begin
     id 28
     name rhand
     direction -1 -4.48825e-011 3.17344e-027   
     length 0.680541   
     axis -2.02492e-015 -90 -90   XYZ
    dof rx rz
    limits (-90.0 90.0)
           (-45.0 45.0)
  end
  begin
     id 29
     name rfingers
     direction -1 -4.49067e-011 6.34687e-027   
     length 0.54867   
     axis -4.04985e-015 -90 -90   XYZ
    dof rx
    limits (0.0 90.0)
  end
  begin
     id 30
     name rthumb
     direction -0.707107 -6.34833e-011 0.707107   
     length 0.787783   
     axis -90 -45 -2.85299e-015   XYZ
    dof rx rz
    limits (-45.0 45.0)
           (-45.0 45.0)
  end
:hierarchy
  begin
    root lhipjoint rhipjoint lowerback
    lhipjoint lfemur
    lfemur ltibia
    ltibia lfoot
    lfoot ltoes
    rhipjoint rfemur
    rfemur rtibia
    rtibia rfoot
    rfoot rtoes
    lowerback upperback
    upperback thorax
    thorax lowerneck lclavicle rclavicle
    lowerneck upperneck
    upperneck head
    lclavicle lhumerus
    lhumerus lradius
    lradius lwrist
    lwrist lhand lthumb
    lhand lfingers
    rclavicle rhumerus
    rhumerus rradius
    rradius rwrist
    rwrist rhand rthumb
    rhand rfingers
  end

#!OML:ASF E:\emotionWalksFemale\Project 1\Capture day 1\Session 1\Female1.ASF
:FULLY-SPECIFIED
:DEGREES
16
root 8.84292 15.51 22.8074 178.104 7.17612 -179.295
lowerback 6.95771 0.907751 1.53368
upperback -3.84091 1.4564 0.317603
thorax -7.92042 0.66408 -0.729471
lowerneck -7.21342 -0.999953 -5.35548
upperneck 11.6314 -1.13723 5.09006
head 4.72743 -0.398188 2.3901
rclavicle -1.86236e-014 -5.06901e-015
rhumerus -43.1031 15.8035 -97.5043
rradius 34.2391
rwrist 19.696
rhand -1.32462 -52.074
rfingers 7.12502
rthumb 24.321 -80.551
lclavicle -1.86236e-014 -5.06901e-015
lhumerus -43.7811 -8.72404 93.9602
lradius 34.5209
lwrist -11.0521
lhand -1.88202 -37.98
lfingers 7.12502
lthumb 23.7865 -9.43238
rfemur 0.476078 16.957 26.1193
rtibia 16.464
rfoot -12.4562 -26.5332
rtoes -9.26907
lfemur -2.60248 -19.4445 -24.8225
ltibia 21.5333
lfoot -20.5858 22.4216
ltoes -30.169
17
root 8.84943 15.5151 22.8378 178.335 6.79126 -179.322
lowerback 7.20465 0.778527 1.3277
upperback -3.98816 1.27336 0.32922
thorax -8.23171 0.584254 -0.582979
lowerneck -7.28655 -1.00284 -5.317
upperneck 11.691 -1.14758 5.13022
head 4.75853 -0.397557 2.39611
rclavicle 6.69656e-015 7.95139e-016
rhumerus -42.9901 15.6939 -97.3281
rradius 33.9732
rwrist 20.4129
rhand -1.75295 -51.6184
rfingers 7.12502
rthumb 23.9103 -80.1499
lclavicle 6.69656e-015 7.95139e-016
lhumerus -43.753 -8.87873 94.038
lradius 34.5619
lwrist -10.969
lhand -1.63599 -38.1577
lfingers 7.12502
lthumb 24.0225 -9.64099
rfemur 0.129739 16.8761 26.0511
rtibia 16.4805
rfoot -12.4213 -26.7443
rtoes -8.50791
lfemur -3.07509 -19.2222 -24.5908
ltibia 21.5529
lfoot -20.4645 21.7112
ltoes -30.4196
18
root 8.84905 15.5153 22.8391 178.318 6.8795 -179.339
lowerback 7.19071 0.789652 1.29408
upperback -3.96925 1.28261 0.32173
thorax -8.20343 0.590306 -0.572806
lowerneck -7.34423 -0.999087 -5.24986
upperneck 11.7702 -1.14568 5.1126
head 4.79205 -0.392949 2.38032
rclavicle -1.45486e-014 -3.27995e-015
rhumerus -42.9354 15.7857 -97.2566
rradius 33.8675
rwrist 20.6974
rhand -1.91181 -51.3008
rfingers 7.12502
rthumb 23.758 -79.8521
lclavicle -1.45486e-014 -3.27995e-015
lhumerus -43.7141 -9.01779 94.1114
lradius 34.5727
lwrist -10.8383
lhand -1.53094 -38.2964
lfingers 7.12502
lthumb 24.1232 -9.79301
rfemur 0.117658 16.9523 26.0309
rtibia 16.5025
rfoot -12.3479 -26.6795
rtoes -8.23679
lfemur -3.0689 -19.1727 -24.6172
ltibia 21.5711
lfoot -20.5557 21.7338
ltoes -30.2137
19
root 8.84894 15.5144 22.8393 178.306 6.89035 -179.269
lowerback 7.2159 0.78038 1.34313
upperback -3.98407 1.27822 0.339389
thorax -8.23373 0.585994 -0.581748
lowerneck -7.39328 -1.00284 -5.2164
upperneck 11.9004 -1.15203 5.12248
head 4.84054 -0.390889 2.37865
rclavicle 9.41742e-015 4.07509e-015
rhumerus -42.897 15.9199 -97.2286
rradius 33.8589
rwrist 20.522
rhand -1.73764 -51.5436
rfingers 7.12502
rthumb 23.925 -80.0731
lclavicle 9.41742e-015 4.07509e-015
lhumerus -43.6806 -9.32111 94.3028
lradius 34.5036
lwrist -10.5954
lhand -1.53832 -38.3996
lfingers 7.12502
lthumb 24.1161 -9.89525
rfemur 0.140192 16.9593 26.1145
rtibia 16.4981
rfoot -12.3783 -26.6868
rtoes -8.04469
lfemur -3.06503 -19.1829 -24.5477
ltibia 21.603
lfoot -20.4573 21.765
ltoes -30.2067
20
root 8.8464 15.5122 22.8358 178.241 6.9355 -179.242
lowerback 7.2487 0.810808 1.40206
upperback -3.99809 1.32509 0.32134
thorax -8.26558 0.604787 -0.641272
lowerneck -7.45242 -1.03385 -5.11753
upperneck 12.1082 -1.19644 5.09501
head 4.91621 -0.40483 2.3528
rclavicle 1.88845e-015 1.54058e-015
rhumerus -42.8911 15.8983 -97.1801
rradius 33.8952
rwrist 20.331
rhand -1.42592 -52.1718
rfingers 7.12502
rthumb 24.2239 -80.6618
lclavicle 1.88845e-015 1.54058e-015
lhumerus -43.7329 -9.61998 94.4697
lradius 34.4934
lwrist -10.5354
lhand -1.56596 -38.2931
lfingers 7.12502
lthumb 24.0896 -9.78531
rfemur 0.210799 16.9163 26.1525
rtibia 16.5082
rfoot -12.2744 -26.6971
rtoes -8.59006
lfemur -2.96741 -19.2039 -24.5732
ltibia 21.6218
lfoot -20.416 21.8543
ltoes -30.0549
21
root 8.84716 15.5135 22.8418 178.277 6.79584 -179.279
lowerback 7.28154 0.786003 1.32719
upperback -4.05017 1.28454 0.292719
thorax -8.34269 0.588054 -0.624941
lowerneck -7.53408 -1.0648 -4.98133
upperneck 12.3166 -1.2431 5.05195
head 4.99575 -0.418897 2.31569
rclavicle 8.01351e-015 6.65929e-015
rhumerus -42.8978 15.8156 -97.077
rradius 33.6366
rwrist 20.9034
rhand -1.95957 -51.4645
rfingers 7.12502
rthumb 23.7122 -80.0217
lclavicle 8.01351e-015 6.65929e-015
lhumerus -43.7809 -9.80801 94.5379
lradius 34.5203
lwrist -10.663
lhand -1.6645 -38.1122
lfingers 7.12502
lthumb 23.9951 -9.59187
rfemur 0.140202 16.8559 26.111
rtibia 16.5464
rfoot -12.2022 -26.7708
rtoes -8.88851
lfemur -3.05341 -19.0953 -24.5586
ltibia 21.6297
lfoot -20.4359 21.6883
ltoes -30.0038
22
root 8.84747 15.5129 22.8423 178.265 6.78578 -179.29
lowerback 7.14588 0.786666 1.30042
upperback -3.9773 1.27656 0.288664
thorax -8.18511 0.586313 -0.609672
lowerneck -7.62134 -1.06719 -4.95764
upperneck 12.3621 -1.25001 5.07509
head 5.02487 -0.41853 2.31888
rclavicle -1.1778e-014 -3.926e-015
rhumerus -42.7184 15.8648 -96.9781
rradius 33.7791
rwrist 20.0948
rhand -1.51713 -52.3636
rfingers 7.12502
rthumb 24.1365 -80.8652
lclavicle -1.1778e-014 -3.926e-015
lhumerus -43.6572 -9.96973 94.6202
lradius 34.5095
lwrist -10.8344
lhand -2.02589 -38.0187
lfingers 7.12502
lthumb 23.6486 -9.45317
rfemur 0.127434 16.8662 26.1084
rtibia 16.6117
rfoot -12.2772 -26.7632
rtoes -8.59322
lfemur -3.04231 -19.0368 -24.5738
ltibia 21.6186
lfoot -20.3566 21.7774
ltoes -30.4857
23
root 8.84714 15.511 22.8432 178.205 6.75082 -179.278
lowerback 7.11066 0.787226 1.31232
upperback -3.89787 1.27397 0.293273
thorax -8.07873 0.584415 -0.609474
lowerneck -7.70898 -1.09977 -5.02353
upperneck 12.3886 -1.29571 5.16726
head 5.0512 -0.437207 2.35573
rclavicle 1.86361e-016 2.5842e-015
rhumerus -42.4975 15.7896 -96.782
rradius 33.7492
rwrist 20.0534
rhand -1.1509 -52.7108
rfingers 7.12502
rthumb 24.4876 -81.1653
lclavicle 1.86361e-016 2.5842e-015
lhumerus -43.5439 -10.1365 94.7373
lradius 34.5097
lwrist -11.0049
lhand -2.32958 -37.8861
lfingers 7.12502
lthumb 23.3572 -9.2833
rfemur 0.178611 16.835 26.1462
rtibia 16.6684
rfoot -12.2778 -26.7924
rtoes -8.6119
lfemur -2.98531 -19.0329 -24.5866
ltibia 21.6045
lfoot -20.1125 21.8864
ltoes -31.1032
24
root 8.84595 15.5098 22.8435 178.145 6.69726 -179.28
lowerback 7.21981 0.780081 1.31527
upperback -3.92082 1.26657 0.288086
thorax -8.1672 0.57955 -0.617789
lowerneck -7.76682 -1.13816 -5.08771
upperneck 12.5522 -1.34995 5.29139
head 5.11549 -0.454014 2.40318
rclavicle -3.60918e-015 1.54058e-015
rhumerus -42.5062 15.6683 -96.6346
rradius 33.6897
rwrist 20.4742
rhand -1.40178 -52.3681
rfingers 7.12502
rthumb 24.2471 -80.855
lclavicle -3.60918e-015 1.54058e-015
lhumerus -43.5535 -10.261 94.8213
lradius 34.5235
lwrist -11.0664
lhand -2.26531 -37.9024
lfingers 7.12502
lthumb 23.4189 -9.30743
rfemur 0.24069 16.7972 26.1618
rtibia 16.6997
rfoot -12.3141 -26.8315
rtoes -8.89716
lfemur -2.93374 -19.0963 -24.6122
ltibia 21.6047
lfoot -20.0805 21.8791
ltoes -31.2904
25
root 8.84467 15.5097 22.8436 178.124 6.70327 -179.302
lowerback 7.29229 0.773539 1.29257
upperback -3.98523 1.2596 0.286653
thorax -8.27972 0.577028 -0.607682
lowerneck -7.75334 -1.13696 -5.10857
upperneck 12.7342 -1.34538 5.32683
head 5.16953 -0.445495 2.41996
rclavicle -2.24875e-015 -3.18055e-015
rhumerus -42.6638 15.6615 -96.5672
rradius 33.7821
rwrist 20.5182
rhand -1.72336 -52.3323
rfingers 7.12502
rthumb 23.9387 -80.86
lclavicle -2.24875e-015 -3.18055e-015
lhumerus -43.5891 -10.286 94.8607
lradius 34.5448
lwrist -11.0287
lhand -2.13322 -38.0973
lfingers 7.12502
lthumb 23.5456 -9.51852
rfemur 0.262759 16.7698 26.133
rtibia 16.6905
rfoot -12.3102 -26.825
rtoes -9.05499
lfemur -2.93236 -19.1308 -24.6452
ltibia 21.6294
lfoot -20.1883 21.8437
ltoes -31.3567
26
root 8.84354 15.5101 22.8452 178.137 6.76803 -179.291
lowerback 7.22609 0.798537 1.33577
upperback -3.98542 1.29553 0.265867
thorax -8.23919 0.592115 -0.65777
lowerneck -7.77083 -1.15183 -5.03687
upperneck 12.8523 -1.36356 5.26557
head 5.20931 -0.451976 2.38879
rclavicle -6.89534e-015 3.42904e-015
rhumerus -42.5922 15.5389 -96.4264
rradius 33.829
rwrist 20.4205
rhand -1.29945 -53.1459
rfingers 7.12502
rthumb 24.3452 -81.6197
lclavicle -6.89534e-015 3.42904e-015
lhumerus -43.5524 -10.3857 94.8852
lradius 34.557
lwrist -11.0896
lhand -2.43249 -38.132
lfingers 7.12502
lthumb 23.2585 -9.51668
rfemur 0.244215 16.7193 26.1197
rtibia 16.6527
rfoot -12.2072 -26.7168
rtoes -8.93185
lfemur -2.95697 -19.1431 -24.636
ltibia 21.6645
lfoot -20.288 21.8468
ltoes -31.1618
